<mxfile host="65bd71144e">
    <diagram id="V5OnG91C2bBhCb1hBuo0" name="Page-1">
        <mxGraphModel dx="1058" dy="773" grid="1" gridSize="10" guides="1" tooltips="1" connect="1" arrows="1" fold="1" page="1" pageScale="1" pageWidth="850" pageHeight="1100" math="0" shadow="0">
            <root>
                <mxCell id="0"/>
                <mxCell id="1" parent="0"/>
                <mxCell id="2" value="Ngườii dùng" style="shape=umlActor;verticalLabelPosition=bottom;verticalAlign=top;html=1;outlineConnect=0;" vertex="1" parent="1">
                    <mxGeometry x="30.01" y="60" width="30" height="60" as="geometry"/>
                </mxCell>
                <mxCell id="3" value="Web App" style="rounded=0;whiteSpace=wrap;html=1;" vertex="1" parent="1">
                    <mxGeometry x="121.42" y="70" width="90" height="60" as="geometry"/>
                </mxCell>
                <mxCell id="4" value="API Server" style="rounded=0;whiteSpace=wrap;html=1;" vertex="1" parent="1">
                    <mxGeometry x="270" y="70" width="90" height="60" as="geometry"/>
                </mxCell>
                <mxCell id="5" value="Pallet-node-authorization" style="rounded=0;whiteSpace=wrap;html=1;" vertex="1" parent="1">
                    <mxGeometry x="410" y="70" width="90" height="60" as="geometry"/>
                </mxCell>
                <mxCell id="6" value="Decentralized Ledger" style="rounded=0;whiteSpace=wrap;html=1;" vertex="1" parent="1">
                    <mxGeometry x="545.19" y="70" width="90" height="60" as="geometry"/>
                </mxCell>
                <mxCell id="7" value="" style="fontStyle=1;rotation=90;" vertex="1" parent="1">
                    <mxGeometry x="-212.81" y="414.69" width="515.63" height="10" as="geometry"/>
                </mxCell>
                <mxCell id="8" value="" style="endArrow=none;dashed=1;html=1;dashPattern=1 3;strokeWidth=2;" edge="1" parent="1">
                    <mxGeometry width="50" height="50" relative="1" as="geometry">
                        <mxPoint x="160" y="210" as="sourcePoint"/>
                        <mxPoint x="160" y="160" as="targetPoint"/>
                        <Array as="points">
                            <mxPoint x="160" y="180"/>
                        </Array>
                    </mxGeometry>
                </mxCell>
                <mxCell id="9" value="" style="fontStyle=1;rotation=90;" vertex="1" parent="1">
                    <mxGeometry x="-73.75" y="440" width="466.25" height="10" as="geometry"/>
                </mxCell>
                <mxCell id="10" value="" style="endArrow=classic;html=1;" edge="1" parent="1">
                    <mxGeometry width="50" height="50" relative="1" as="geometry">
                        <mxPoint x="60" y="210" as="sourcePoint"/>
                        <mxPoint x="140" y="210" as="targetPoint"/>
                    </mxGeometry>
                </mxCell>
                <mxCell id="11" value="1. Yêu cầu lấy&amp;nbsp;&lt;br&gt;thông tin sinh viên" style="text;html=1;align=center;verticalAlign=middle;resizable=0;points=[];autosize=1;strokeColor=none;fillColor=none;" vertex="1" parent="1">
                    <mxGeometry x="45.040000000000006" y="170" width="120" height="40" as="geometry"/>
                </mxCell>
                <mxCell id="12" value="" style="endArrow=none;dashed=1;html=1;dashPattern=1 3;strokeWidth=2;" edge="1" parent="1">
                    <mxGeometry width="50" height="50" relative="1" as="geometry">
                        <mxPoint x="323" y="250" as="sourcePoint"/>
                        <mxPoint x="323" y="160" as="targetPoint"/>
                        <Array as="points">
                            <mxPoint x="322.63" y="230"/>
                        </Array>
                    </mxGeometry>
                </mxCell>
                <mxCell id="17" value="" style="endArrow=classic;html=1;" edge="1" parent="1">
                    <mxGeometry width="50" height="50" relative="1" as="geometry">
                        <mxPoint x="180" y="250" as="sourcePoint"/>
                        <mxPoint x="300" y="250" as="targetPoint"/>
                    </mxGeometry>
                </mxCell>
                <mxCell id="18" value="2. Gửi HTTP GET&lt;br&gt;request get/info-student" style="edgeLabel;html=1;align=center;verticalAlign=middle;resizable=0;points=[];" vertex="1" connectable="0" parent="17">
                    <mxGeometry x="-0.3" y="1" relative="1" as="geometry">
                        <mxPoint x="22" y="-29" as="offset"/>
                    </mxGeometry>
                </mxCell>
                <mxCell id="19" value="" style="fontStyle=1;rotation=90;" vertex="1" parent="1">
                    <mxGeometry x="165.04" y="410.55" width="316.19" height="10" as="geometry"/>
                </mxCell>
                <mxCell id="21" value="" style="endArrow=none;dashed=1;html=1;dashPattern=1 3;strokeWidth=2;" edge="1" parent="1">
                    <mxGeometry width="50" height="50" relative="1" as="geometry">
                        <mxPoint x="455" y="320" as="sourcePoint"/>
                        <mxPoint x="455" y="160" as="targetPoint"/>
                        <Array as="points">
                            <mxPoint x="454.5" y="230"/>
                        </Array>
                    </mxGeometry>
                </mxCell>
                <mxCell id="22" value="" style="fontStyle=1;rotation=90;" vertex="1" parent="1">
                    <mxGeometry x="399.36" y="374.27" width="111.29" height="10" as="geometry"/>
                </mxCell>
                <mxCell id="23" value="" style="endArrow=classic;html=1;" edge="1" parent="1">
                    <mxGeometry width="50" height="50" relative="1" as="geometry">
                        <mxPoint x="337.5000000000001" y="320" as="sourcePoint"/>
                        <mxPoint x="437.5000000000001" y="320" as="targetPoint"/>
                    </mxGeometry>
                </mxCell>
                <mxCell id="25" value="" style="endArrow=none;dashed=1;html=1;dashPattern=1 3;strokeWidth=2;" edge="1" parent="1">
                    <mxGeometry width="50" height="50" relative="1" as="geometry">
                        <mxPoint x="455" y="680" as="sourcePoint"/>
                        <mxPoint x="455" y="520" as="targetPoint"/>
                        <Array as="points">
                            <mxPoint x="455" y="440"/>
                        </Array>
                    </mxGeometry>
                </mxCell>
                <mxCell id="26" value="" style="endArrow=none;dashed=1;html=1;dashPattern=1 3;strokeWidth=2;" edge="1" parent="1">
                    <mxGeometry width="50" height="50" relative="1" as="geometry">
                        <mxPoint x="590" y="410" as="sourcePoint"/>
                        <mxPoint x="590" y="160" as="targetPoint"/>
                        <Array as="points">
                            <mxPoint x="590" y="230"/>
                        </Array>
                    </mxGeometry>
                </mxCell>
                <mxCell id="28" value="" style="fontStyle=1;rotation=90;" vertex="1" parent="1">
                    <mxGeometry x="517.79" y="487.41" width="144.81" height="10" as="geometry"/>
                </mxCell>
                <mxCell id="31" value="" style="endArrow=none;dashed=1;html=1;dashPattern=1 3;strokeWidth=2;" edge="1" parent="1">
                    <mxGeometry width="50" height="50" relative="1" as="geometry">
                        <mxPoint x="590" y="680" as="sourcePoint"/>
                        <mxPoint x="589.69" y="570" as="targetPoint"/>
                        <Array as="points">
                            <mxPoint x="589.69" y="630"/>
                        </Array>
                    </mxGeometry>
                </mxCell>
                <mxCell id="34" value="" style="endArrow=classic;html=1;dashed=1;" edge="1" parent="1">
                    <mxGeometry width="50" height="50" relative="1" as="geometry">
                        <mxPoint x="310" y="490" as="sourcePoint"/>
                        <mxPoint x="170" y="490" as="targetPoint"/>
                    </mxGeometry>
                </mxCell>
                <mxCell id="35" value="6.2. Thông báo bạn không&lt;br&gt;quyền thực hiện action này" style="edgeLabel;html=1;align=center;verticalAlign=middle;resizable=0;points=[];" vertex="1" connectable="0" parent="34">
                    <mxGeometry x="0.5391" y="-3" relative="1" as="geometry">
                        <mxPoint x="38" y="-27" as="offset"/>
                    </mxGeometry>
                </mxCell>
                <mxCell id="36" value="" style="endArrow=classic;html=1;" edge="1" parent="1">
                    <mxGeometry width="50" height="50" relative="1" as="geometry">
                        <mxPoint x="610" y="424.99999999999994" as="sourcePoint"/>
                        <mxPoint x="610" y="465.69" as="targetPoint"/>
                        <Array as="points">
                            <mxPoint x="670" y="424.69"/>
                            <mxPoint x="670" y="465.69"/>
                        </Array>
                    </mxGeometry>
                </mxCell>
                <mxCell id="37" value="6.1 Thực thi extrinsic&lt;br&gt;get-info-student&amp;nbsp;" style="edgeLabel;html=1;align=center;verticalAlign=middle;resizable=0;points=[];" vertex="1" connectable="0" parent="36">
                    <mxGeometry x="-0.3" y="1" relative="1" as="geometry">
                        <mxPoint x="74" y="22" as="offset"/>
                    </mxGeometry>
                </mxCell>
                <mxCell id="43" value="3. Call transaction&amp;nbsp; get-info-student" style="text;html=1;strokeColor=none;fillColor=none;align=center;verticalAlign=middle;whiteSpace=wrap;rounded=0;" vertex="1" parent="1">
                    <mxGeometry x="337.5" y="270" width="110" height="30" as="geometry"/>
                </mxCell>
                <mxCell id="48" value="" style="endArrow=classic;html=1;" edge="1" parent="1">
                    <mxGeometry width="50" height="50" relative="1" as="geometry">
                        <mxPoint x="480" y="325.53" as="sourcePoint"/>
                        <mxPoint x="480" y="366.22" as="targetPoint"/>
                        <Array as="points">
                            <mxPoint x="540" y="325.22"/>
                            <mxPoint x="540" y="366.22"/>
                        </Array>
                    </mxGeometry>
                </mxCell>
                <mxCell id="50" value="4. Verify permission" style="text;html=1;strokeColor=none;fillColor=none;align=center;verticalAlign=middle;whiteSpace=wrap;rounded=0;" vertex="1" parent="1">
                    <mxGeometry x="480" y="290" width="60" height="30" as="geometry"/>
                </mxCell>
                <mxCell id="51" value="" style="endArrow=classic;html=1;" edge="1" parent="1">
                    <mxGeometry width="50" height="50" relative="1" as="geometry">
                        <mxPoint x="470" y="413.69" as="sourcePoint"/>
                        <mxPoint x="570" y="413.69" as="targetPoint"/>
                    </mxGeometry>
                </mxCell>
                <mxCell id="52" value="5.1 Verify success" style="text;html=1;strokeColor=none;fillColor=none;align=center;verticalAlign=middle;whiteSpace=wrap;rounded=0;" vertex="1" parent="1">
                    <mxGeometry x="470" y="384.25" width="100" height="30" as="geometry"/>
                </mxCell>
                <mxCell id="53" value="" style="endArrow=classic;html=1;" edge="1" parent="1">
                    <mxGeometry width="50" height="50" relative="1" as="geometry">
                        <mxPoint x="442.5" y="430" as="sourcePoint"/>
                        <mxPoint x="342.5" y="430" as="targetPoint"/>
                    </mxGeometry>
                </mxCell>
                <mxCell id="54" value="5.2 Verify faild&lt;br&gt;(unAuthorized)" style="text;html=1;strokeColor=none;fillColor=none;align=center;verticalAlign=middle;whiteSpace=wrap;rounded=0;" vertex="1" parent="1">
                    <mxGeometry x="342.5" y="394.25" width="100" height="30" as="geometry"/>
                </mxCell>
                <mxCell id="58" value="" style="endArrow=classic;html=1;" edge="1" parent="1">
                    <mxGeometry width="50" height="50" relative="1" as="geometry">
                        <mxPoint x="580" y="540" as="sourcePoint"/>
                        <mxPoint x="340" y="540" as="targetPoint"/>
                    </mxGeometry>
                </mxCell>
                <mxCell id="59" value="7. Trả respone là thông tin sinh viên" style="text;html=1;strokeColor=none;fillColor=none;align=center;verticalAlign=middle;whiteSpace=wrap;rounded=0;" vertex="1" parent="1">
                    <mxGeometry x="470" y="500" width="110" height="30" as="geometry"/>
                </mxCell>
                <mxCell id="61" value="" style="endArrow=none;dashed=1;html=1;dashPattern=1 3;strokeWidth=2;" edge="1" parent="1">
                    <mxGeometry width="50" height="50" relative="1" as="geometry">
                        <mxPoint x="590" y="680" as="sourcePoint"/>
                        <mxPoint x="589.69" y="570" as="targetPoint"/>
                        <Array as="points">
                            <mxPoint x="589.69" y="630"/>
                            <mxPoint x="590" y="600"/>
                        </Array>
                    </mxGeometry>
                </mxCell>
                <mxCell id="62" value="" style="endArrow=none;dashed=1;html=1;dashPattern=1 3;strokeWidth=2;" edge="1" parent="1">
                    <mxGeometry width="50" height="50" relative="1" as="geometry">
                        <mxPoint x="323" y="680" as="sourcePoint"/>
                        <mxPoint x="322.63000000000005" y="570" as="targetPoint"/>
                        <Array as="points">
                            <mxPoint x="322.63000000000005" y="630"/>
                        </Array>
                    </mxGeometry>
                </mxCell>
                <mxCell id="64" value="" style="endArrow=classic;html=1;" edge="1" parent="1">
                    <mxGeometry width="50" height="50" relative="1" as="geometry">
                        <mxPoint x="310" y="570" as="sourcePoint"/>
                        <mxPoint x="170" y="570" as="targetPoint"/>
                    </mxGeometry>
                </mxCell>
                <mxCell id="65" value="8. Thông báo thành công&amp;nbsp;&lt;br&gt;hoặc thất bai và trả về&amp;nbsp;&lt;br&gt;response" style="edgeLabel;html=1;align=center;verticalAlign=middle;resizable=0;points=[];" vertex="1" connectable="0" parent="64">
                    <mxGeometry x="0.5391" y="-3" relative="1" as="geometry">
                        <mxPoint x="38" y="-27" as="offset"/>
                    </mxGeometry>
                </mxCell>
            </root>
        </mxGraphModel>
    </diagram>
</mxfile>